<svg width="546" height="58" viewBox="0 0 546 58" fill="none" xmlns="http://www.w3.org/2000/svg">
<path d="M69.0687 1.42846H0.268662V13.5085H27.4687V57.4285H41.8687V13.5085H69.0687V1.42846ZM149.803 1.42846V23.3485H104.203V1.42846H89.803V57.4285H104.203V35.5085H149.803V57.4285H164.203V1.42846H149.803ZM245.784 12.8685V1.42846H186.584V57.4285H245.784V45.9885H200.984V34.6285H245.784V24.2285H200.984V12.8685H245.784ZM379.659 13.5085V1.42846H320.459V57.4285H334.859V39.9085H374.859V27.7485H334.859V13.5085H379.659ZM464.492 18.2285C464.492 4.30846 453.212 0.628464 433.932 0.628464C415.372 0.628464 402.252 4.78846 402.252 23.4285H416.652C416.652 14.5485 422.332 12.7085 434.732 12.7085C447.132 12.7085 450.092 14.7085 450.092 19.3485C450.092 32.0685 400.972 26.8685 400.972 50.1485V57.4285H463.692V45.3485H421.132C424.652 34.2285 464.492 39.9085 464.492 18.2285ZM545.8 12.8685V1.42846H486.6V57.4285H545.8V45.9885H501V34.6285H545.8V24.2285H501V12.8685H545.8Z" fill="white"/>
</svg>
